<svg width="249" height="55" viewBox="0 0 249 55" fill="none" xmlns="http://www.w3.org/2000/svg">
<path id="Vector" d="M11.6293 46.4237H21.8032V1.63255H11.8852L11.7573 3.23222C11.5013 6.94367 9.77365 8.67132 5.99842 8.86328L0.6875 9.11922V17.3096H11.6293V46.4237ZM38.5088 34.2021C34.0937 34.2021 31.0863 36.9536 31.0863 40.6648C31.0863 43.9282 33.5818 46.5516 37.2931 46.5516C38.7648 46.5516 40.1085 46.1037 41.0043 45.3359C40.1725 48.7912 36.9731 50.3909 31.8542 49.751V54.1021C41.0043 55.2539 46.4432 50.9027 46.4432 43.1603C46.4432 37.4015 43.2439 34.2021 38.5088 34.2021ZM75.2444 47.0635C89.1935 47.0635 99.6234 37.2095 99.6234 24.0282C99.6234 10.9109 89.1935 0.992676 75.2444 0.992676C61.2952 0.992676 50.8653 10.9109 50.8653 24.0282C50.8653 37.2095 61.2952 47.0635 75.2444 47.0635ZM75.2444 37.5295C67.5019 37.5295 62.063 31.9626 62.063 24.0282C62.063 16.1578 67.5019 10.5909 75.2444 10.5909C82.9868 10.5909 88.4257 16.1578 88.4257 24.0282C88.4257 31.9626 82.9868 37.5295 75.2444 37.5295ZM129.295 47.0635C143.245 47.0635 153.674 37.2095 153.674 24.0282C153.674 10.9109 143.245 0.992676 129.295 0.992676C115.346 0.992676 104.916 10.9109 104.916 24.0282C104.916 37.2095 115.346 47.0635 129.295 47.0635ZM129.295 37.5295C121.553 37.5295 116.114 31.9626 116.114 24.0282C116.114 16.1578 121.553 10.5909 129.295 10.5909C137.038 10.5909 142.477 16.1578 142.477 24.0282C142.477 31.9626 137.038 37.5295 129.295 37.5295ZM183.347 47.0635C197.297 47.0635 207.726 37.2095 207.726 24.0282C207.726 10.9109 197.297 0.992676 183.347 0.992676C169.398 0.992676 158.968 10.9109 158.968 24.0282C158.968 37.2095 169.398 47.0635 183.347 47.0635ZM183.347 37.5295C175.605 37.5295 170.166 31.9626 170.166 24.0282C170.166 16.1578 175.605 10.5909 183.347 10.5909C191.09 10.5909 196.529 16.1578 196.529 24.0282C196.529 31.9626 191.09 37.5295 183.347 37.5295ZM248.539 20.253H236.254V8.09544H227.487V20.253H215.266V29.1472H227.487V41.3047H236.254V29.1472H248.539V20.253Z" fill="#050038"/>
</svg>
